<?xml version="1.0" encoding="UTF-8" standalone="no"?><svg xmlns="http://www.w3.org/2000/svg" xmlns:xlink="http://www.w3.org/1999/xlink" contentScriptType="application/ecmascript" contentStyleType="text/css" height="236px" preserveAspectRatio="none" style="width:649px;height:236px;" version="1.1" viewBox="0 0 649 236" width="649px" zoomAndPan="magnify"><defs/><g><!--MD5=[a6f11bb19cee6b13000111f5ad685e8b]
cluster Dependencies--><path d="M303.5,141 L397.5,141 A4.5,4.5 0 0 1 400.5,144 L407.5,161.4844 L409.5,161.4844 A3,3 0 0 1 412.5,164.4844 L412.5,221 A3,3 0 0 1 409.5,224 L303.5,224 A3,3 0 0 1 300.5,221 L300.5,144 A3,3 0 0 1 303.5,141 " fill="#FFFFFF" style="stroke: #000000; stroke-width: 1.5;"/><line style="stroke: #000000; stroke-width: 1.5;" x1="300.5" x2="407.5" y1="161.4844" y2="161.4844"/><text fill="#000000" font-family="Tahoma, sans-serif" font-size="12" font-weight="bold" lengthAdjust="spacingAndGlyphs" textLength="94" x="304.5" y="155.0059">Dependencies</text><!--MD5=[9c457379fe16239bb200613bb0a1399c]
entity @aws-sdk--><rect fill="#F8F8F8" height="34.4844" rx="3" ry="3" style="stroke: #383838; stroke-width: 1.0;" width="80" x="316.5" y="174"/><rect fill="#F8F8F8" height="5" style="stroke: #383838; stroke-width: 1.0;" width="10" x="311.5" y="179"/><rect fill="#F8F8F8" height="5" style="stroke: #383838; stroke-width: 1.0;" width="10" x="311.5" y="198.4844"/><text fill="#000000" font-family="Tahoma, sans-serif" font-size="12" lengthAdjust="spacingAndGlyphs" textLength="60" x="326.5" y="196.0059">@aws-sdk</text><ellipse cx="583.271" cy="51.3542" fill="#F8F8F8" rx="54.771" ry="13.3542" style="stroke: #383838; stroke-width: 0.5;"/><text fill="#000000" font-family="Tahoma, sans-serif" font-size="12" lengthAdjust="spacingAndGlyphs" textLength="74" x="546.271" y="55.0964">addToQueue</text><ellipse cx="487.4558" cy="51.742" fill="#F8F8F8" rx="28.4558" ry="13.242" style="stroke: #383838; stroke-width: 0.5;"/><text fill="#000000" font-family="Tahoma, sans-serif" font-size="12" lengthAdjust="spacingAndGlyphs" textLength="36" x="469.4558" y="55.4842">config</text><ellipse cx="357.3714" cy="110.4743" fill="#F8F8F8" rx="60.3714" ry="14.4743" style="stroke: #383838; stroke-width: 0.5;"/><text fill="#000000" font-family="Tahoma, sans-serif" font-size="12" lengthAdjust="spacingAndGlyphs" textLength="89" x="312.8714" y="114.2165">dataGenerators</text><ellipse cx="357.4493" cy="51.2899" fill="#F8F8F8" rx="89.4493" ry="20.2899" style="stroke: #383838; stroke-width: 0.5;"/><text fill="#000000" font-family="Tahoma, sans-serif" font-size="12" lengthAdjust="spacingAndGlyphs" textLength="157" x="278.9493" y="55.032">generateRandomDataBatch</text><ellipse cx="33.7487" cy="51.742" fill="#F8F8F8" rx="27.7487" ry="13.242" style="stroke: #383838; stroke-width: 0.5;"/><text fill="#000000" font-family="Tahoma, sans-serif" font-size="12" font-weight="bold" lengthAdjust="spacingAndGlyphs" textLength="35" x="16.2487" y="55.4842">index</text><ellipse cx="164.3136" cy="51.5627" fill="#F8F8F8" rx="90.8136" ry="20.5627" style="stroke: #383838; stroke-width: 0.5;"/><text fill="#000000" font-family="Tahoma, sans-serif" font-size="12" lengthAdjust="spacingAndGlyphs" textLength="160" x="84.3136" y="55.3049">putRecordInKinesisFirehose</text><!--MD5=[cb3f19f69032f633f20522f063bf671b]
link addToQueue to @aws-sdk--><path d="M564.146,64.223 C524.781,88.068 435.094,142.3932 387.501,171.2221 " fill="none" id="addToQueue-&gt;@aws-sdk" style="stroke: #000000; stroke-width: 0.5;"/><polygon fill="#000000" points="383.029,173.9305,392.7991,172.6874,387.3052,171.3394,388.6533,165.8455,383.029,173.9305" style="stroke: #000000; stroke-width: 0.5;"/><!--MD5=[2d7a33b493a949f94f8cc5964413725f]
link generateRandomDataBatch to dataGenerators--><path d="M357.5,72.116 C357.5,78.132 357.5,84.735 357.5,90.695 " fill="none" id="generateRandomDataBatch-&gt;dataGenerators" style="stroke: #000000; stroke-width: 0.5;"/><polygon fill="#000000" points="357.5,95.953,361.5,86.953,357.5,90.953,353.5,86.953,357.5,95.953" style="stroke: #000000; stroke-width: 0.5;"/><!--MD5=[0034a1ba08e2cbb22ecd7aae0bb9e990]
link <b>index</b> to addToQueue--><path d="M44.0683,39.455 C51.4601,31.989 62.0324,23.071 73.5,19 C119.885,2.531 468.527,7.979 516.5,19 C531.425,22.429 546.883,29.643 559.185,36.405 " fill="none" id="&lt;b&gt;index&lt;/b&gt;-&gt;addToQueue" style="stroke: #000000; stroke-width: 1.0;"/><polygon fill="#000000" points="563.568,38.868,557.6825,30.9711,559.2094,36.418,553.7625,37.9449,563.568,38.868" style="stroke: #000000; stroke-width: 1.0;"/><!--MD5=[e5db0b20f65e1e699331321af2637ed8]
link <b>index</b> to config--><path d="M44.0683,39.455 C51.4601,31.989 62.0324,23.071 73.5,19 C112.661,5.096 408.339,5.096 447.5,19 C457.033,22.385 465.948,29.119 472.931,35.584 " fill="none" id="&lt;b&gt;index&lt;/b&gt;-&gt;config" style="stroke: #000000; stroke-width: 1.0;"/><polygon fill="#000000" points="476.604,39.125,472.9019,29.9984,473.0048,35.6543,467.3488,35.7572,476.604,39.125" style="stroke: #000000; stroke-width: 1.0;"/><!--MD5=[d6a4e996ed89a1953fd7cbba4facf258]
link <b>index</b> to generateRandomDataBatch--><path d="M44.0683,39.455 C51.4601,31.989 62.0324,23.071 73.5,19 C111.614,5.468 215.536,12.787 255.5,19 C272.726,21.678 291.022,26.756 307.291,32.117 " fill="none" id="&lt;b&gt;index&lt;/b&gt;-&gt;generateRandomDataBatch" style="stroke: #000000; stroke-width: 1.0;"/><polygon fill="#000000" points="312.272,33.787,305.009,27.1351,307.531,32.1986,302.4675,34.7206,312.272,33.787" style="stroke: #000000; stroke-width: 1.0;"/><!--MD5=[64d87650861c861bd327feb865af9856]
link <b>index</b> to putRecordInKinesisFirehose--><path d="M61.1328,51.5 C63.4041,51.5 65.6753,51.5 67.9466,51.5 " fill="none" id="&lt;b&gt;index&lt;/b&gt;-&gt;putRecordInKinesisFirehose" style="stroke: #000000; stroke-width: 1.0;"/><polygon fill="#000000" points="73.2462,51.5,64.2462,47.5,68.2462,51.5,64.2462,55.5,73.2462,51.5" style="stroke: #000000; stroke-width: 1.0;"/><!--MD5=[dfeaefd71cf999402a7a0976e16942d3]
link putRecordInKinesisFirehose to @aws-sdk--><path d="M190.794,71.33 C227.31,97.481 293.019,144.5382 329.767,170.8552 " fill="none" id="putRecordInKinesisFirehose-&gt;@aws-sdk" style="stroke: #000000; stroke-width: 0.5;"/><polygon fill="#000000" points="334.101,173.959,329.1131,165.4666,330.036,171.0477,324.4549,171.9706,334.101,173.959" style="stroke: #000000; stroke-width: 0.5;"/><script type="text/plantuml"><![CDATA[MD5=[4a3d27d94f53b6cebdf44b72c2580256]
@startuml

scale max 1920 width
top to bottom direction

skinparam nodesep 12
skinparam ranksep 24
skinparam monochrome true
skinparam shadowing false
skinparam defaultFontName Tahoma
skinparam defaultFontSize 12
skinparam roundCorner 6
skinparam dpi 150
skinparam arrowColor black
skinparam arrowThickness 0.5
skinparam packageTitleAlignment left

skinparam usecase {
  borderThickness 0.5
}

skinparam rectangle {
  borderThickness 0.5
}

skinparam component {
  borderThickness 1
}


(addToQueue)
(config)
(dataGenerators)
(generateRandomDataBatch)
(<b>index</b>)
(putRecordInKinesisFirehose)

package "Dependencies" {
  [@aws-sdk]
}

(addToQueue) ---> [@aws-sdk]
(generateRandomDataBatch) --> (dataGenerators)
(<b>index</b>) -[thickness=1]> (addToQueue)
(<b>index</b>) -[thickness=1]> (config)
(<b>index</b>) -[thickness=1]> (generateRandomDataBatch)
(<b>index</b>) -[thickness=1]> (putRecordInKinesisFirehose)
(putRecordInKinesisFirehose) ---> [@aws-sdk]

@enduml


' View and edit on https://arkit.pro
]]></script></g></svg>