<?xml version="1.0" encoding="UTF-8" standalone="no"?><svg xmlns="http://www.w3.org/2000/svg" xmlns:xlink="http://www.w3.org/1999/xlink" contentScriptType="application/ecmascript" contentStyleType="text/css" height="415px" preserveAspectRatio="none" style="width:1008px;height:415px;" version="1.1" viewBox="0 0 1008 415" width="1008px" zoomAndPan="magnify"><defs/><g><!--MD5=[a6f11bb19cee6b13000111f5ad685e8b]
cluster Dependencies--><path d="M739,320 L833,320 A4.5,4.5 0 0 1 836,323 L843,340.4844 L993,340.4844 A3,3 0 0 1 996,343.4844 L996,400 A3,3 0 0 1 993,403 L739,403 A3,3 0 0 1 736,400 L736,323 A3,3 0 0 1 739,320 " fill="#FFFFFF" style="stroke: #000000; stroke-width: 1.5;"/><line style="stroke: #000000; stroke-width: 1.5;" x1="736" x2="843" y1="340.4844" y2="340.4844"/><text fill="#000000" font-family="Tahoma, sans-serif" font-size="12" font-weight="bold" lengthAdjust="spacingAndGlyphs" textLength="94" x="740" y="334.0059">Dependencies</text><!--MD5=[9c457379fe16239bb200613bb0a1399c]
entity @aws-sdk--><rect fill="#F8F8F8" height="34.4844" rx="3" ry="3" style="stroke: #383838; stroke-width: 1.0;" width="80" x="752" y="353"/><rect fill="#F8F8F8" height="5" style="stroke: #383838; stroke-width: 1.0;" width="10" x="747" y="358"/><rect fill="#F8F8F8" height="5" style="stroke: #383838; stroke-width: 1.0;" width="10" x="747" y="377.4844"/><text fill="#000000" font-family="Tahoma, sans-serif" font-size="12" lengthAdjust="spacingAndGlyphs" textLength="60" x="762" y="375.0059">@aws-sdk</text><!--MD5=[f1f19571c8abff2f4a6d577b8ab0f7a1]
entity serverless-webpack--><rect fill="#F8F8F8" height="34.4844" rx="3" ry="3" style="stroke: #383838; stroke-width: 1.0;" width="134" x="846" y="353"/><rect fill="#F8F8F8" height="5" style="stroke: #383838; stroke-width: 1.0;" width="10" x="841" y="358"/><rect fill="#F8F8F8" height="5" style="stroke: #383838; stroke-width: 1.0;" width="10" x="841" y="377.4844"/><text fill="#000000" font-family="Tahoma, sans-serif" font-size="12" lengthAdjust="spacingAndGlyphs" textLength="114" x="856" y="375.0059">serverless-webpack</text><ellipse cx="934.771" cy="196.3542" fill="#F8F8F8" rx="54.771" ry="13.3542" style="stroke: #383838; stroke-width: 0.5;"/><text fill="#000000" font-family="Tahoma, sans-serif" font-size="12" lengthAdjust="spacingAndGlyphs" textLength="74" x="897.771" y="200.0964">addToQueue</text><ellipse cx="413.1268" cy="196.5254" fill="#F8F8F8" rx="63.1268" ry="15.0254" style="stroke: #383838; stroke-width: 0.5;"/><text fill="#000000" font-family="Tahoma, sans-serif" font-size="12" font-weight="bold" lengthAdjust="spacingAndGlyphs" textLength="96" x="365.1268" y="200.2675">addToQueue.d</text><ellipse cx="697.0771" cy="288.5154" fill="#F8F8F8" rx="58.0771" ry="14.0154" style="stroke: #383838; stroke-width: 0.5;"/><text fill="#000000" font-family="Tahoma, sans-serif" font-size="12" lengthAdjust="spacingAndGlyphs" textLength="83" x="655.5771" y="292.2576">DomainEvents</text><ellipse cx="101.1025" cy="27.9205" fill="#F8F8F8" rx="67.6025" ry="15.9205" style="stroke: #383838; stroke-width: 0.5;"/><text fill="#000000" font-family="Tahoma, sans-serif" font-size="12" font-weight="bold" lengthAdjust="spacingAndGlyphs" textLength="107" x="47.6025" y="31.6627">DomainEvents.d</text><ellipse cx="565.2321" cy="196.4464" fill="#F8F8F8" rx="75.2321" ry="17.4464" style="stroke: #383838; stroke-width: 0.5;"/><text fill="#000000" font-family="Tahoma, sans-serif" font-size="12" lengthAdjust="spacingAndGlyphs" textLength="125" x="502.7321" y="200.1886">DynamoDbRepository</text><ellipse cx="271.0423" cy="28.1085" fill="#F8F8F8" rx="88.5423" ry="20.1085" style="stroke: #383838; stroke-width: 0.5;"/><text fill="#000000" font-family="Tahoma, sans-serif" font-size="12" font-weight="bold" lengthAdjust="spacingAndGlyphs" textLength="155" x="193.5423" y="31.8506">DynamoDbRepository.d</text><ellipse cx="697.098" cy="196.742" fill="#F8F8F8" rx="42.598" ry="13.242" style="stroke: #383838; stroke-width: 0.5;"/><text fill="#000000" font-family="Tahoma, sans-serif" font-size="12" lengthAdjust="spacingAndGlyphs" textLength="56" x="669.098" y="200.4842">EmitEvent</text><ellipse cx="809.8534" cy="196.5707" fill="#F8F8F8" rx="55.8534" ry="13.5707" style="stroke: #383838; stroke-width: 0.5;"/><text fill="#000000" font-family="Tahoma, sans-serif" font-size="12" font-weight="bold" lengthAdjust="spacingAndGlyphs" textLength="77" x="771.3534" y="200.3129">EmitEvent.d</text><ellipse cx="564.8534" cy="28.0707" fill="#F8F8F8" rx="55.8534" ry="13.5707" style="stroke: #383838; stroke-width: 0.5;"/><text fill="#000000" font-family="Tahoma, sans-serif" font-size="12" font-weight="bold" lengthAdjust="spacingAndGlyphs" textLength="77" x="526.3534" y="31.8129">EventStorer</text><ellipse cx="433.8714" cy="27.9743" fill="#F8F8F8" rx="60.3714" ry="14.4743" style="stroke: #383838; stroke-width: 0.5;"/><text fill="#000000" font-family="Tahoma, sans-serif" font-size="12" font-weight="bold" lengthAdjust="spacingAndGlyphs" textLength="89" x="389.3714" y="31.7165">EventStorer.d</text><ellipse cx="696.9493" cy="98.2899" fill="#F8F8F8" rx="89.4493" ry="20.2899" style="stroke: #383838; stroke-width: 0.5;"/><text fill="#000000" font-family="Tahoma, sans-serif" font-size="12" font-weight="bold" lengthAdjust="spacingAndGlyphs" textLength="157" x="618.4493" y="102.032">IntegrationEventEmitter</text><ellipse cx="100.9319" cy="98.3864" fill="#F8F8F8" rx="94.9319" ry="21.3864" style="stroke: #383838; stroke-width: 0.5;"/><text fill="#000000" font-family="Tahoma, sans-serif" font-size="12" font-weight="bold" lengthAdjust="spacingAndGlyphs" textLength="169" x="16.4319" y="102.1286">IntegrationEventEmitter.d</text><ellipse cx="934.8275" cy="98.3655" fill="#F8F8F8" rx="57.3275" ry="13.8655" style="stroke: #383838; stroke-width: 0.5;"/><text fill="#000000" font-family="Tahoma, sans-serif" font-size="12" font-weight="bold" lengthAdjust="spacingAndGlyphs" textLength="81" x="894.3275" y="102.1077">Transformer</text><ellipse cx="271.9363" cy="98.2873" fill="#F8F8F8" rx="61.9363" ry="14.7873" style="stroke: #383838; stroke-width: 0.5;"/><text fill="#000000" font-family="Tahoma, sans-serif" font-size="12" font-weight="bold" lengthAdjust="spacingAndGlyphs" textLength="93" x="225.4363" y="102.0294">Transformer.d</text><ellipse cx="926.9562" cy="288.5912" fill="#F8F8F8" rx="65.9562" ry="15.5912" style="stroke: #383838; stroke-width: 0.5;"/><text fill="#000000" font-family="Tahoma, sans-serif" font-size="12" font-weight="bold" lengthAdjust="spacingAndGlyphs" textLength="103" x="875.4562" y="292.3334">webpack.config</text><!--MD5=[cb3f19f69032f633f20522f063bf671b]
link addToQueue to @aws-sdk--><path d="M919.909,209.605 C902.799,223.754 874.608,248.383 854,273 C833.753,297.185 814.743,328.3543 803.242,348.5061 " fill="none" id="addToQueue-&gt;@aws-sdk" style="stroke: #000000; stroke-width: 0.5;"/><polygon fill="#000000" points="800.764,352.8815,808.6794,347.0209,803.2277,348.5306,801.7179,343.0789,800.764,352.8815" style="stroke: #000000; stroke-width: 0.5;"/><!--MD5=[6858bed891f4804db6037258e116e18f]
link <b>addToQueue.d</b> to @aws-sdk--><path d="M433.601,210.78 C467.649,232.342 538.246,275.423 602,304 C650.105,325.5623 707.671,344.3301 746.738,356.0817 " fill="none" id="&lt;b&gt;addToQueue.d&lt;/b&gt;-&gt;@aws-sdk" style="stroke: #000000; stroke-width: 1.0;"/><polygon fill="#000000" points="751.885,357.6218,744.4105,351.2084,747.0951,356.1876,742.1158,358.8722,751.885,357.6218" style="stroke: #000000; stroke-width: 1.0;"/><!--MD5=[b49a8da4741807521a8514781f6598b3]
link DynamoDbRepository to @aws-sdk--><path d="M571.57,214.18 C581.449,237.292 602.2,279.024 632,304 C665.4,331.9938 712.452,349.1533 746.886,358.757 " fill="none" id="DynamoDbRepository-&gt;@aws-sdk" style="stroke: #000000; stroke-width: 0.5;"/><polygon fill="#000000" points="751.872,360.1195,744.2437,353.8898,747.0486,358.8023,742.1362,361.6072,751.872,360.1195" style="stroke: #000000; stroke-width: 0.5;"/><!--MD5=[7f83d18f0466ac7b7bd66484cfbe73a4]
link EmitEvent to @aws-sdk--><path d="M709.761,209.125 C724.31,223.019 747.895,247.596 762,273 C775.305,296.964 783.573,327.634 787.979,347.7762 " fill="none" id="EmitEvent-&gt;@aws-sdk" style="stroke: #000000; stroke-width: 0.5;"/><polygon fill="#000000" points="789.068,352.9115,791.1134,343.2774,788.0305,348.0203,783.2875,344.9374,789.068,352.9115" style="stroke: #000000; stroke-width: 0.5;"/><!--MD5=[cc2f04273bc7ea45d531c7d5121cb39f]
link EmitEvent to DomainEvents--><path d="M697,209.638 C697,224.944 697,251.402 697,269.174 " fill="none" id="EmitEvent-&gt;DomainEvents" style="stroke: #000000; stroke-width: 0.5;"/><polygon fill="#000000" points="697,274.389,701,265.389,697,269.389,693,265.389,697,274.389" style="stroke: #000000; stroke-width: 0.5;"/><!--MD5=[e35d2172061963fc63ca778bbf12d000]
link <b>EmitEvent.d</b> to @aws-sdk--><path d="M808.676,210.111 C805.612,239.308 798.003,311.804 794.215,347.8941 " fill="none" id="&lt;b&gt;EmitEvent.d&lt;/b&gt;-&gt;@aws-sdk" style="stroke: #000000; stroke-width: 1.0;"/><polygon fill="#000000" points="793.685,352.9452,798.603,344.4121,794.2071,347.9725,790.6467,343.5767,793.685,352.9452" style="stroke: #000000; stroke-width: 1.0;"/><!--MD5=[3067fbc2405b1fa2b77df879e492d96a]
link <b>EventStorer</b> to DynamoDbRepository--><path d="M565,41.515 C565,69.655 565,138.223 565,173.594 " fill="none" id="&lt;b&gt;EventStorer&lt;/b&gt;-&gt;DynamoDbRepository" style="stroke: #000000; stroke-width: 1.0;"/><polygon fill="#000000" points="565,178.975,569,169.975,565,173.975,561,169.975,565,178.975" style="stroke: #000000; stroke-width: 1.0;"/><!--MD5=[e8d71662462ffdc6b8b491d982d98c0e]
link <b>IntegrationEventEmitter</b> to EmitEvent--><path d="M697,119.391 C697,136.661 697,161.426 697,177.965 " fill="none" id="&lt;b&gt;IntegrationEventEmitter&lt;/b&gt;-&gt;EmitEvent" style="stroke: #000000; stroke-width: 1.0;"/><polygon fill="#000000" points="697,183.236,701,174.236,697,178.236,693,174.236,697,183.236" style="stroke: #000000; stroke-width: 1.0;"/><!--MD5=[c20b88ef2d39f8a5e07a661697103609]
link <b>Transformer</b> to addToQueue--><path d="M935,112.848 C935,129.657 935,158.604 935,177.395 " fill="none" id="&lt;b&gt;Transformer&lt;/b&gt;-&gt;addToQueue" style="stroke: #000000; stroke-width: 1.0;"/><polygon fill="#000000" points="935,182.876,939,173.876,935,177.876,931,173.876,935,182.876" style="stroke: #000000; stroke-width: 1.0;"/><!--MD5=[4a61a0f283f03bc87ab1087b5adacbd9]
link <b>webpack.config</b> to serverless-webpack--><path d="M924.432,304.082 C922.286,316.27 919.195,333.8218 916.768,347.6028 " fill="none" id="&lt;b&gt;webpack.config&lt;/b&gt;-&gt;serverless-webpack" style="stroke: #000000; stroke-width: 1.0;"/><polygon fill="#000000" points="915.84,352.8701,921.3405,344.7003,916.7073,347.9459,913.4617,343.3127,915.84,352.8701" style="stroke: #000000; stroke-width: 1.0;"/><!--MD5=[cbde2050b8f83c8c260a1c4e9871c4fe]
link <b>DomainEvents.d</b> to <b>DynamoDbRepository.d</b>--><!--MD5=[19931c39abaaf0b10f73e0e62f193bb2]
link <b>DynamoDbRepository.d</b> to <b>EventStorer.d</b>--><!--MD5=[31e3b332bb001e613c1284868a639b84]
link <b>DomainEvents.d</b> to <b>IntegrationEventEmitter.d</b>--><!--MD5=[155b197c84ff57fa38704f35910cf812]
link <b>IntegrationEventEmitter.d</b> to <b>Transformer.d</b>--><script type="text/plantuml"><![CDATA[MD5=[bf50f225f6bbf8bccf3eb53b1856dcf6]
@startuml

scale max 1920 width
top to bottom direction

skinparam nodesep 14
skinparam ranksep 29
skinparam monochrome true
skinparam shadowing false
skinparam defaultFontName Tahoma
skinparam defaultFontSize 12
skinparam roundCorner 6
skinparam dpi 150
skinparam arrowColor black
skinparam arrowThickness 0.5
skinparam packageTitleAlignment left

skinparam usecase {
  borderThickness 0.5
}

skinparam rectangle {
  borderThickness 0.5
}

skinparam component {
  borderThickness 1
}


(addToQueue)
(<b>addToQueue.d</b>)
(DomainEvents)
(<b>DomainEvents.d</b>)
(DynamoDbRepository)
(<b>DynamoDbRepository.d</b>)
(EmitEvent)
(<b>EmitEvent.d</b>)
(<b>EventStorer</b>)
(<b>EventStorer.d</b>)
(<b>IntegrationEventEmitter</b>)
(<b>IntegrationEventEmitter.d</b>)
(<b>Transformer</b>)
(<b>Transformer.d</b>)
(<b>webpack.config</b>)

package "Dependencies" {
  [@aws-sdk]
  [serverless-webpack]
}

(addToQueue) ----> [@aws-sdk]
(<b>addToQueue.d</b>) ----[thickness=1]> [@aws-sdk]
(DynamoDbRepository) ----> [@aws-sdk]
(EmitEvent) ----> [@aws-sdk]
(EmitEvent) ---> (DomainEvents)
(<b>EmitEvent.d</b>) ----[thickness=1]> [@aws-sdk]
(<b>EventStorer</b>) ----[thickness=1]> (DynamoDbRepository)
(<b>IntegrationEventEmitter</b>) ---[thickness=1]> (EmitEvent)
(<b>Transformer</b>) ---[thickness=1]> (addToQueue)
(<b>webpack.config</b>) --[thickness=1]> [serverless-webpack]

@enduml


' View and edit on https://arkit.pro
]]></script></g></svg>